# xmcd CD database file
#
# Track frame offsets:
#	150
#	14460
#	27977
#	40417
#	55012
#	67055
#	80120
#	93375
#	106997
#	118967
#	132812
#	145917
#	160155
#	173367
#	187505
#	200140
#	212645
#	226547
#	239517
#	253215
#	266510
#	279527
#
# Disc length: 3895 seconds
#
# Revision: 2
# Processed by: cddbd v1.5.2PL0 Copyright (c) Steve Scherf et al.
# Submitted via: CDex 1.51
#
DISCID=380f3516
DTITLE=Roosevelt Sykes - The Honey Dripper - Vol.1  {1934-1942}
DYEAR=1999
DGENRE=Jazz
TTITLE0=D. B. A. Blues 
TTITLE1=Dirty Mother For You
TTITLE2=The Honey Dripper
TTITLE3=The Cannon Ball
TTITLE4=Drunken Gambler
TTITLE5=Night Time Is The Right Time
TTITLE6=Sad Yas Yas Yas
TTITLE7=The Road To Ruin
TTITLE8=She's Long Gone
TTITLE9=Have You Seen Ida B
TTITLE10=Journey From The Germs
TTITLE11=You Can't Fix It Back
TTITLE12=Get Your Row Out
TTITLE13=44 Blues
TTITLE14=She's Got What It Takes
TTITLE15=Right Now
TTITLE16=Essie Mae Blues
TTITLE17=Let The Black Have His Way
TTITLE18=Keep Your Hands Off Her
TTITLE19=St. Louis Woman Blues
TTITLE20=Training Camp Blues
TTITLE21=Sugar Babe Blues
EXTD=YEAR: 1999
EXTT0=
EXTT1=
EXTT2=
EXTT3=
EXTT4=
EXTT5=
EXTT6=
EXTT7=
EXTT8=
EXTT9=
EXTT10=
EXTT11=
EXTT12=
EXTT13=
EXTT14=
EXTT15=
EXTT16=
EXTT17=
EXTT18=
EXTT19=
EXTT20=
EXTT21=
PLAYORDER=
